M48
; DRILL file {KiCad 7.0.9} date Saturday 08 February 2025 at 08:35:47
; FORMAT={-:-/ absolute / inch / decimal}
; #@! TF.CreationDate,2025-02-08T08:35:47+01:00
; #@! TF.GenerationSoftware,Kicad,Pcbnew,7.0.9
; #@! TF.FileFunction,Plated,1,2,PTH
FMAT,2
INCH
; #@! TA.AperFunction,Plated,PTH,ComponentDrill
T1C0.0315
; #@! TA.AperFunction,Plated,PTH,ComponentDrill
T2C0.0354
; #@! TA.AperFunction,Plated,PTH,ComponentDrill
T3C0.0394
; #@! TA.AperFunction,Plated,PTH,ComponentDrill
T4C0.0433
%
G90
G05
T1
X3.9218Y-2.8532
X3.9496Y-3.5496
X4.2064Y-4.2014
X4.3082Y-2.9568
X4.3496Y-3.5496
X4.3582Y-2.3582
X4.5928Y-4.0978
X4.6082Y-4.741
X4.641Y-2.641
X4.8Y-3.82
X4.891Y-4.4582
X4.8994Y-3.0504
X4.8994Y-3.3504
X4.9994Y-3.0504
X4.9994Y-3.3504
X5.04Y-3.5566
X5.04Y-3.655
X5.0978Y-2.3064
X5.0994Y-3.0504
X5.0994Y-3.3504
X5.1994Y-3.0504
X5.1994Y-3.3504
X5.1996Y-5.2728
X5.2Y-3.82
X5.2014Y-2.6928
X5.2994Y-3.0504
X5.2994Y-3.3504
X5.3994Y-3.0504
X5.3994Y-3.3504
X5.3996Y-4.9264
X5.3998Y-3.5504
X5.3998Y-3.8504
X5.4994Y-3.0504
X5.4994Y-3.3504
X5.4998Y-3.5504
X5.4998Y-3.8504
X5.5994Y-3.0504
X5.5994Y-3.3504
X5.5998Y-3.5504
X5.5998Y-3.8504
X5.6998Y-3.5504
X5.6998Y-3.8504
X5.7998Y-3.5504
X5.7998Y-3.8504
X5.8496Y-2.7496
X5.8496Y-3.1496
X5.87Y-5.245
X5.87Y-5.645
X5.8998Y-3.5504
X5.8998Y-3.8504
X5.9998Y-3.5504
X5.9998Y-3.8504
X6.0994Y-3.0504
X6.0994Y-3.3504
X6.0998Y-3.5504
X6.0998Y-3.8504
X6.1994Y-3.0504
X6.1994Y-3.3504
X6.1998Y-3.5504
X6.1998Y-3.8504
X6.21Y-4.15
X6.2887Y-4.15
X6.2994Y-3.0504
X6.2994Y-3.3504
X6.2998Y-3.5504
X6.2998Y-3.8504
X6.3496Y-4.9264
X6.3978Y-2.6928
X6.3994Y-3.0504
X6.3994Y-3.3504
X6.4994Y-3.0504
X6.4994Y-3.3504
X6.5Y-3.83
X6.5014Y-2.3064
X6.5496Y-5.2728
X6.57Y-3.5516
X6.57Y-3.65
X6.5994Y-3.0504
X6.5994Y-3.3504
X6.6994Y-3.0504
X6.6994Y-3.3504
X6.7994Y-3.0504
X6.7994Y-3.3504
X6.83Y-3.5526
X6.83Y-3.651
X6.8582Y-4.4582
X6.9Y-3.83
X7.0082Y-2.641
X7.141Y-4.741
X7.1564Y-4.0978
X7.291Y-2.3582
X7.3496Y-3.5496
X7.4068Y-2.9418
X7.5428Y-4.2014
X7.7496Y-3.5496
X7.7932Y-2.8382
T2
X3.6452Y-3.545
X3.6684Y-2.7791
X3.7452Y-3.545
X3.765Y-2.805
X3.903Y-4.2755
X3.9996Y-4.2496
X4.1789Y-2.1789
X4.2496Y-2.2496
X4.4289Y-4.9203
X4.4996Y-4.8496
X5.0237Y-2.053
X5.0496Y-2.1496
X5.0496Y-5.4862
X5.0996Y-5.3996
X5.8496Y-2.4996
X5.8496Y-2.5996
X5.87Y-5.795
X5.87Y-5.895
X6.5496Y-2.1496
X6.5755Y-2.053
X6.6496Y-5.3996
X6.6996Y-5.4862
X7.2496Y-4.8496
X7.3203Y-4.9203
X7.3996Y-2.2496
X7.4703Y-2.1789
X7.6996Y-4.2496
X7.7962Y-4.2755
X7.9465Y-2.783
X7.9496Y-3.5496
X8.0431Y-2.7571
X8.0496Y-3.5496
T3
X6.6Y-4.15
X6.7Y-4.15
X6.8Y-4.15
T4
X4.9674Y-4.104
X5.1674Y-4.104
T0
M30
