%TF.GenerationSoftware,KiCad,Pcbnew,7.0.9*%
%TF.CreationDate,2025-02-16T01:00:14+01:00*%
%TF.ProjectId,heart,68656172-742e-46b6-9963-61645f706362,rev?*%
%TF.SameCoordinates,Original*%
%TF.FileFunction,Copper,L1,Top*%
%TF.FilePolarity,Positive*%
%FSLAX46Y46*%
G04 Gerber Fmt 4.6, Leading zero omitted, Abs format (unit mm)*
G04 Created by KiCad (PCBNEW 7.0.9) date 2025-02-16 01:00:14*
%MOMM*%
%LPD*%
G01*
G04 APERTURE LIST*
G04 Aperture macros list*
%AMHorizOval*
0 Thick line with rounded ends*
0 $1 width*
0 $2 $3 position (X,Y) of the first rounded end (center of the circle)*
0 $4 $5 position (X,Y) of the second rounded end (center of the circle)*
0 Add line between two ends*
20,1,$1,$2,$3,$4,$5,0*
0 Add two circle primitives to create the rounded ends*
1,1,$1,$2,$3*
1,1,$1,$4,$5*%
%AMRotRect*
0 Rectangle, with rotation*
0 The origin of the aperture is its center*
0 $1 length*
0 $2 width*
0 $3 Rotation angle, in degrees counterclockwise*
0 Add horizontal line*
21,1,$1,$2,0,0,$3*%
G04 Aperture macros list end*
%TA.AperFunction,ComponentPad*%
%ADD10C,2.000000*%
%TD*%
%TA.AperFunction,ComponentPad*%
%ADD11RotRect,1.800000X1.800000X315.000000*%
%TD*%
%TA.AperFunction,ComponentPad*%
%ADD12C,1.800000*%
%TD*%
%TA.AperFunction,ComponentPad*%
%ADD13C,1.600000*%
%TD*%
%TA.AperFunction,ComponentPad*%
%ADD14HorizOval,1.600000X0.000000X0.000000X0.000000X0.000000X0*%
%TD*%
%TA.AperFunction,ComponentPad*%
%ADD15RotRect,1.800000X1.800000X195.000000*%
%TD*%
%TA.AperFunction,ComponentPad*%
%ADD16HorizOval,1.600000X0.000000X0.000000X0.000000X0.000000X0*%
%TD*%
%TA.AperFunction,ComponentPad*%
%ADD17RotRect,1.800000X1.800000X345.000000*%
%TD*%
%TA.AperFunction,ComponentPad*%
%ADD18RotRect,1.800000X1.800000X105.000000*%
%TD*%
%TA.AperFunction,ComponentPad*%
%ADD19R,1.350000X1.350000*%
%TD*%
%TA.AperFunction,ComponentPad*%
%ADD20O,1.350000X1.350000*%
%TD*%
%TA.AperFunction,ComponentPad*%
%ADD21HorizOval,1.600000X0.000000X0.000000X0.000000X0.000000X0*%
%TD*%
%TA.AperFunction,ComponentPad*%
%ADD22RotRect,1.800000X1.800000X225.000000*%
%TD*%
%TA.AperFunction,ComponentPad*%
%ADD23RotRect,1.800000X1.800000X75.000000*%
%TD*%
%TA.AperFunction,ComponentPad*%
%ADD24O,1.600000X1.600000*%
%TD*%
%TA.AperFunction,ComponentPad*%
%ADD25R,1.600000X1.600000*%
%TD*%
%TA.AperFunction,ComponentPad*%
%ADD26HorizOval,1.600000X0.000000X0.000000X0.000000X0.000000X0*%
%TD*%
%TA.AperFunction,ComponentPad*%
%ADD27RotRect,1.800000X1.800000X300.000000*%
%TD*%
%TA.AperFunction,ComponentPad*%
%ADD28R,1.800000X1.800000*%
%TD*%
%TA.AperFunction,ComponentPad*%
%ADD29RotRect,1.800000X1.800000X165.000000*%
%TD*%
%TA.AperFunction,ComponentPad*%
%ADD30HorizOval,1.600000X0.000000X0.000000X0.000000X0.000000X0*%
%TD*%
%TA.AperFunction,ComponentPad*%
%ADD31HorizOval,1.600000X0.000000X0.000000X0.000000X0.000000X0*%
%TD*%
%TA.AperFunction,ComponentPad*%
%ADD32HorizOval,1.600000X0.000000X0.000000X0.000000X0.000000X0*%
%TD*%
%TA.AperFunction,ComponentPad*%
%ADD33R,1.700000X1.700000*%
%TD*%
%TA.AperFunction,ComponentPad*%
%ADD34O,1.700000X1.700000*%
%TD*%
%TA.AperFunction,ComponentPad*%
%ADD35HorizOval,1.600000X0.000000X0.000000X0.000000X0.000000X0*%
%TD*%
%TA.AperFunction,ComponentPad*%
%ADD36RotRect,1.800000X1.800000X15.000000*%
%TD*%
%TA.AperFunction,ComponentPad*%
%ADD37RotRect,1.800000X1.800000X135.000000*%
%TD*%
%TA.AperFunction,ComponentPad*%
%ADD38RotRect,1.800000X1.800000X45.000000*%
%TD*%
%TA.AperFunction,ComponentPad*%
%ADD39RotRect,1.800000X1.800000X240.000000*%
%TD*%
G04 APERTURE END LIST*
D10*
%TO.P,BTN,1*%
%TO.N,VCC*%
X126172400Y-104240400D03*
%TO.P,BTN,2*%
X131252400Y-104240400D03*
%TD*%
D11*
%TO.P,C1,1*%
%TO.N,LED*%
X184140000Y-123180000D03*
D12*
%TO.P,C1,2*%
%TO.N,GND*%
X185936051Y-124976051D03*
%TD*%
D13*
%TO.P,R7,1*%
%TO.N,LED*%
X181773097Y-104085200D03*
D14*
%TO.P,R7,2*%
X191586902Y-106714801D03*
%TD*%
D15*
%TO.P,F2,1*%
%TO.N,LED*%
X101590000Y-107940000D03*
D12*
%TO.P,F2,2*%
%TO.N,GND*%
X99136548Y-108597400D03*
%TD*%
D13*
%TO.P,R4,1*%
%TO.N,LED*%
X178007898Y-67082103D03*
D16*
%TO.P,R4,2*%
X185192103Y-59897898D03*
%TD*%
D17*
%TO.P,D1,1*%
%TO.N,LED*%
X195570000Y-107940000D03*
D12*
%TO.P,D1,2*%
%TO.N,GND*%
X198023452Y-108597400D03*
%TD*%
D13*
%TO.P,R15,1*%
%TO.N,LED*%
X99614097Y-72472200D03*
D14*
%TO.P,R15,2*%
X109427902Y-75101801D03*
%TD*%
D18*
%TO.P,B2,1*%
%TO.N,LED*%
X128260000Y-54600000D03*
D12*
%TO.P,B2,2*%
%TO.N,GND*%
X127602600Y-52146548D03*
%TD*%
D19*
%TO.P,BAT,1*%
%TO.N,VCC*%
X159734000Y-105410000D03*
D20*
%TO.P,BAT,2*%
%TO.N,GND*%
X157734000Y-105410000D03*
%TD*%
D13*
%TO.P,R11,1*%
%TO.N,LED*%
X132070000Y-133929409D03*
D21*
%TO.P,R11,2*%
X137150000Y-125130591D03*
%TD*%
D22*
%TO.P,G2,1*%
%TO.N,LED*%
X114290000Y-123180000D03*
D12*
%TO.P,G2,2*%
%TO.N,GND*%
X112493949Y-124976051D03*
%TD*%
D23*
%TO.P,H1,1*%
%TO.N,LED*%
X166360000Y-54600000D03*
D12*
%TO.P,H1,2*%
%TO.N,GND*%
X167017400Y-52146548D03*
%TD*%
D13*
%TO.P,R10,1*%
%TO.N,LED*%
X149098000Y-143383000D03*
D24*
%TO.P,R10,2*%
X149098000Y-133223000D03*
%TD*%
%TO.P,SN54HC595(2),1*%
%TO.N,LED*%
X142225000Y-77480000D03*
%TO.P,SN54HC595(2),2*%
X139685000Y-77480000D03*
%TO.P,SN54HC595(2),3*%
X137145000Y-77480000D03*
%TO.P,SN54HC595(2),4*%
X134605000Y-77480000D03*
%TO.P,SN54HC595(2),5*%
X132065000Y-77480000D03*
%TO.P,SN54HC595(2),6*%
X129525000Y-77480000D03*
%TO.P,SN54HC595(2),7*%
X126985000Y-77480000D03*
%TO.P,SN54HC595(2),8*%
%TO.N,GND*%
X124445000Y-77480000D03*
%TO.P,SN54HC595(2),9*%
%TO.N,N/C*%
X124445000Y-85100000D03*
%TO.P,SN54HC595(2),10*%
%TO.N,VCC*%
X126985000Y-85100000D03*
%TO.P,SN54HC595(2),11*%
%TO.N,CLK*%
X129525000Y-85100000D03*
%TO.P,SN54HC595(2),12*%
%TO.N,LTCH2*%
X132065000Y-85100000D03*
%TO.P,SN54HC595(2),13*%
%TO.N,GND*%
X134605000Y-85100000D03*
%TO.P,SN54HC595(2),14*%
%TO.N,DAT*%
X137145000Y-85100000D03*
%TO.P,SN54HC595(2),15*%
%TO.N,LED*%
X139685000Y-85100000D03*
D25*
%TO.P,SN54HC595(2),16*%
%TO.N,VCC*%
X142225000Y-85100000D03*
%TD*%
D13*
%TO.P,R14,1*%
%TO.N,LED*%
X100320000Y-90160000D03*
D24*
%TO.P,R14,2*%
X110480000Y-90160000D03*
%TD*%
D13*
%TO.P,R2,1*%
%TO.N,BTN*%
X132080000Y-97028000D03*
D24*
%TO.P,R2,2*%
%TO.N,VCC*%
X121920000Y-97028000D03*
%TD*%
D25*
%TO.P,C2,1*%
%TO.N,VCC*%
X173482000Y-90234888D03*
D13*
%TO.P,C2,2*%
%TO.N,GND*%
X173482000Y-92734888D03*
%TD*%
%TO.P,R6,1*%
%TO.N,LED*%
X186680000Y-90160000D03*
D24*
%TO.P,R6,2*%
X196840000Y-90160000D03*
%TD*%
D13*
%TO.P,R5,1*%
%TO.N,LED*%
X188133097Y-74720801D03*
D26*
%TO.P,R5,2*%
X197946902Y-72091200D03*
%TD*%
D27*
%TO.P,B1,1*%
%TO.N,LED*%
X168900000Y-137150000D03*
D12*
%TO.P,B1,2*%
%TO.N,GND*%
X170170000Y-139349705D03*
%TD*%
D28*
%TO.P,A2,1*%
%TO.N,LED*%
X148580000Y-66030000D03*
D12*
%TO.P,A2,2*%
%TO.N,GND*%
X148580000Y-63490000D03*
%TD*%
D13*
%TO.P,R13,1*%
%TO.N,LED*%
X106843097Y-106714801D03*
D26*
%TO.P,R13,2*%
X116656902Y-104085200D03*
%TD*%
D25*
%TO.P,MSP430G2553,1*%
%TO.N,VCC*%
X160015000Y-90180000D03*
D24*
%TO.P,MSP430G2553,2*%
%TO.N,N/C*%
X157475000Y-90180000D03*
%TO.P,MSP430G2553,3*%
X154935000Y-90180000D03*
%TO.P,MSP430G2553,4*%
%TO.N,LTCH1*%
X152395000Y-90180000D03*
%TO.P,MSP430G2553,5*%
%TO.N,CLK*%
X149855000Y-90180000D03*
%TO.P,MSP430G2553,6*%
%TO.N,DAT*%
X147315000Y-90180000D03*
%TO.P,MSP430G2553,7*%
%TO.N,LTCH2*%
X144775000Y-90180000D03*
%TO.P,MSP430G2553,8*%
%TO.N,N/C*%
X142235000Y-90180000D03*
%TO.P,MSP430G2553,9*%
X139695000Y-90180000D03*
%TO.P,MSP430G2553,10*%
X137155000Y-90180000D03*
%TO.P,MSP430G2553,11*%
%TO.N,BTN*%
X137155000Y-97800000D03*
%TO.P,MSP430G2553,12*%
%TO.N,N/C*%
X139695000Y-97800000D03*
%TO.P,MSP430G2553,13*%
X142235000Y-97800000D03*
%TO.P,MSP430G2553,14*%
X144775000Y-97800000D03*
%TO.P,MSP430G2553,15*%
X147315000Y-97800000D03*
%TO.P,MSP430G2553,16*%
%TO.N,RST*%
X149855000Y-97800000D03*
%TO.P,MSP430G2553,17*%
%TO.N,N/C*%
X152395000Y-97800000D03*
%TO.P,MSP430G2553,18*%
X154935000Y-97800000D03*
%TO.P,MSP430G2553,19*%
X157475000Y-97800000D03*
%TO.P,MSP430G2553,20*%
%TO.N,GND*%
X160015000Y-97800000D03*
%TD*%
D29*
%TO.P,D2,1*%
%TO.N,LED*%
X95631000Y-71247000D03*
D12*
%TO.P,D2,2*%
%TO.N,GND*%
X93177548Y-70589600D03*
%TD*%
D25*
%TO.P,C3,1*%
%TO.N,BTN*%
X128016000Y-90336488D03*
D13*
%TO.P,C3,2*%
%TO.N,GND*%
X128016000Y-92836488D03*
%TD*%
%TO.P,R9,1*%
%TO.N,LED*%
X161280000Y-125130591D03*
D30*
%TO.P,R9,2*%
X166360000Y-133929409D03*
%TD*%
D13*
%TO.P,R3,1*%
%TO.N,LED*%
X162505200Y-68396903D03*
D31*
%TO.P,R3,2*%
X165134801Y-58583098D03*
%TD*%
D13*
%TO.P,R17,1*%
%TO.N,LED*%
X129485200Y-58583097D03*
D32*
%TO.P,R17,2*%
X132114801Y-68396902D03*
%TD*%
D33*
%TO.P,PWR,1*%
%TO.N,VCC*%
X167640000Y-105410000D03*
D34*
%TO.P,PWR,2*%
X170180000Y-105410000D03*
%TO.P,PWR,3*%
%TO.N,N/C*%
X172720000Y-105410000D03*
%TD*%
D13*
%TO.P,R12,1*%
%TO.N,LED*%
X117047898Y-120422103D03*
D16*
%TO.P,R12,2*%
X124232103Y-113237898D03*
%TD*%
D28*
%TO.P,A1,1*%
%TO.N,LED*%
X149098000Y-147193000D03*
D12*
%TO.P,A1,2*%
%TO.N,GND*%
X149098000Y-149733000D03*
%TD*%
D13*
%TO.P,R8,1*%
%TO.N,LED*%
X174197898Y-113237898D03*
D35*
%TO.P,R8,2*%
X181382103Y-120422103D03*
%TD*%
D28*
%TO.P,E1,1*%
%TO.N,LED*%
X201920000Y-90160000D03*
D12*
%TO.P,E1,2*%
%TO.N,GND*%
X204460000Y-90160000D03*
%TD*%
D28*
%TO.P,E2,1*%
%TO.N,LED*%
X95128000Y-90043000D03*
D12*
%TO.P,E2,2*%
%TO.N,GND*%
X92588000Y-90043000D03*
%TD*%
D13*
%TO.P,R1,1*%
%TO.N,RST*%
X165100000Y-97282000D03*
D24*
%TO.P,R1,2*%
%TO.N,VCC*%
X175260000Y-97282000D03*
%TD*%
%TO.P,SN54HC595(1),1*%
%TO.N,LED*%
X172705000Y-77480000D03*
%TO.P,SN54HC595(1),2*%
X170165000Y-77480000D03*
%TO.P,SN54HC595(1),3*%
X167625000Y-77480000D03*
%TO.P,SN54HC595(1),4*%
X165085000Y-77480000D03*
%TO.P,SN54HC595(1),5*%
X162545000Y-77480000D03*
%TO.P,SN54HC595(1),6*%
X160005000Y-77480000D03*
%TO.P,SN54HC595(1),7*%
X157465000Y-77480000D03*
%TO.P,SN54HC595(1),8*%
%TO.N,GND*%
X154925000Y-77480000D03*
%TO.P,SN54HC595(1),9*%
%TO.N,N/C*%
X154925000Y-85100000D03*
%TO.P,SN54HC595(1),10*%
%TO.N,VCC*%
X157465000Y-85100000D03*
%TO.P,SN54HC595(1),11*%
%TO.N,CLK*%
X160005000Y-85100000D03*
%TO.P,SN54HC595(1),12*%
%TO.N,LTCH1*%
X162545000Y-85100000D03*
%TO.P,SN54HC595(1),13*%
%TO.N,GND*%
X165085000Y-85100000D03*
%TO.P,SN54HC595(1),14*%
%TO.N,DAT*%
X167625000Y-85100000D03*
%TO.P,SN54HC595(1),15*%
%TO.N,LED*%
X170165000Y-85100000D03*
D25*
%TO.P,SN54HC595(1),16*%
%TO.N,VCC*%
X172705000Y-85100000D03*
%TD*%
D13*
%TO.P,R16,1*%
%TO.N,LED*%
X110697898Y-59897898D03*
D35*
%TO.P,R16,2*%
X117882103Y-67082103D03*
%TD*%
D36*
%TO.P,F1,1*%
%TO.N,LED*%
X201841445Y-70687995D03*
D12*
%TO.P,F1,2*%
%TO.N,GND*%
X204294897Y-70030595D03*
%TD*%
D37*
%TO.P,C2,1*%
%TO.N,LED*%
X107940000Y-57140000D03*
D12*
%TO.P,C2,2*%
%TO.N,GND*%
X106143949Y-55343949D03*
%TD*%
D38*
%TO.P,G1,1*%
%TO.N,LED*%
X187950000Y-57140000D03*
D12*
%TO.P,G1,2*%
%TO.N,GND*%
X189746051Y-55343949D03*
%TD*%
D39*
%TO.P,H2,1*%
%TO.N,LED*%
X129530000Y-137150000D03*
D12*
%TO.P,H2,2*%
%TO.N,GND*%
X128260000Y-139349705D03*
%TD*%
D25*
%TO.P,C1,1*%
%TO.N,RST*%
X166878000Y-90210000D03*
D13*
%TO.P,C1,2*%
%TO.N,GND*%
X166878000Y-92710000D03*
%TD*%
%TO.P,R18,1*%
%TO.N,LED*%
X148580000Y-69840000D03*
D24*
%TO.P,R18,2*%
X148580000Y-80000000D03*
%TD*%
M02*
