%TF.GenerationSoftware,KiCad,Pcbnew,7.0.9*%
%TF.CreationDate,2025-02-08T08:35:37+01:00*%
%TF.ProjectId,heart,68656172-742e-46b6-9963-61645f706362,rev?*%
%TF.SameCoordinates,Original*%
%TF.FileFunction,Soldermask,Top*%
%TF.FilePolarity,Negative*%
%FSLAX46Y46*%
G04 Gerber Fmt 4.6, Leading zero omitted, Abs format (unit mm)*
G04 Created by KiCad (PCBNEW 7.0.9) date 2025-02-08 08:35:37*
%MOMM*%
%LPD*%
G01*
G04 APERTURE LIST*
G04 Aperture macros list*
%AMHorizOval*
0 Thick line with rounded ends*
0 $1 width*
0 $2 $3 position (X,Y) of the first rounded end (center of the circle)*
0 $4 $5 position (X,Y) of the second rounded end (center of the circle)*
0 Add line between two ends*
20,1,$1,$2,$3,$4,$5,0*
0 Add two circle primitives to create the rounded ends*
1,1,$1,$2,$3*
1,1,$1,$4,$5*%
%AMRotRect*
0 Rectangle, with rotation*
0 The origin of the aperture is its center*
0 $1 length*
0 $2 width*
0 $3 Rotation angle, in degrees counterclockwise*
0 Add horizontal line*
21,1,$1,$2,0,0,$3*%
G04 Aperture macros list end*
%ADD10R,1.350000X1.350000*%
%ADD11O,1.350000X1.350000*%
%ADD12C,2.000000*%
%ADD13O,1.600000X1.600000*%
%ADD14R,1.600000X1.600000*%
%ADD15C,1.800000*%
%ADD16RotRect,1.800000X1.800000X315.000000*%
%ADD17HorizOval,1.600000X0.000000X0.000000X0.000000X0.000000X0*%
%ADD18C,1.600000*%
%ADD19RotRect,1.800000X1.800000X195.000000*%
%ADD20HorizOval,1.600000X0.000000X0.000000X0.000000X0.000000X0*%
%ADD21RotRect,1.800000X1.800000X345.000000*%
%ADD22RotRect,1.800000X1.800000X105.000000*%
%ADD23HorizOval,1.600000X0.000000X0.000000X0.000000X0.000000X0*%
%ADD24RotRect,1.800000X1.800000X225.000000*%
%ADD25RotRect,1.800000X1.800000X75.000000*%
%ADD26HorizOval,1.600000X0.000000X0.000000X0.000000X0.000000X0*%
%ADD27RotRect,1.800000X1.800000X300.000000*%
%ADD28R,1.800000X1.800000*%
%ADD29RotRect,1.800000X1.800000X165.000000*%
%ADD30HorizOval,1.600000X0.000000X0.000000X0.000000X0.000000X0*%
%ADD31HorizOval,1.600000X0.000000X0.000000X0.000000X0.000000X0*%
%ADD32HorizOval,1.600000X0.000000X0.000000X0.000000X0.000000X0*%
%ADD33O,1.700000X1.700000*%
%ADD34R,1.700000X1.700000*%
%ADD35HorizOval,1.600000X0.000000X0.000000X0.000000X0.000000X0*%
%ADD36RotRect,1.800000X1.800000X15.000000*%
%ADD37RotRect,1.800000X1.800000X135.000000*%
%ADD38RotRect,1.800000X1.800000X45.000000*%
%ADD39RotRect,1.800000X1.800000X240.000000*%
G04 APERTURE END LIST*
D10*
%TO.C,BAT*%
X159734000Y-105410000D03*
D11*
X157734000Y-105410000D03*
%TD*%
D12*
%TO.C,BTN*%
X126172400Y-104240400D03*
X131252400Y-104240400D03*
%TD*%
D13*
%TO.C,MSP430G2553*%
X160015000Y-97800000D03*
X157475000Y-97800000D03*
X154935000Y-97800000D03*
X152395000Y-97800000D03*
X149855000Y-97800000D03*
X147315000Y-97800000D03*
X144775000Y-97800000D03*
X142235000Y-97800000D03*
X139695000Y-97800000D03*
X137155000Y-97800000D03*
X137155000Y-90180000D03*
X139695000Y-90180000D03*
X142235000Y-90180000D03*
X144775000Y-90180000D03*
X147315000Y-90180000D03*
X149855000Y-90180000D03*
X152395000Y-90180000D03*
X154935000Y-90180000D03*
X157475000Y-90180000D03*
D14*
X160015000Y-90180000D03*
%TD*%
D15*
%TO.C,C1*%
X185936051Y-124976051D03*
D16*
X184140000Y-123180000D03*
%TD*%
D17*
%TO.C,R7*%
X191586903Y-106714801D03*
D18*
X181773097Y-104085200D03*
%TD*%
D19*
%TO.C,F2*%
X101590000Y-107940000D03*
D15*
X99136548Y-108597400D03*
%TD*%
D18*
%TO.C,R4*%
X178007898Y-67082103D03*
D20*
X185192103Y-59897898D03*
%TD*%
D15*
%TO.C,D1*%
X198023452Y-108597400D03*
D21*
X195570000Y-107940000D03*
%TD*%
D17*
%TO.C,R15*%
X109427903Y-75101801D03*
D18*
X99614097Y-72472200D03*
%TD*%
D15*
%TO.C,B2*%
X127602600Y-52146548D03*
D22*
X128260000Y-54600000D03*
%TD*%
D18*
%TO.C,R11*%
X132070000Y-133929409D03*
D23*
X137150000Y-125130591D03*
%TD*%
D24*
%TO.C,G2*%
X114290000Y-123180000D03*
D15*
X112493949Y-124976051D03*
%TD*%
%TO.C,H1*%
X167017400Y-52146548D03*
D25*
X166360000Y-54600000D03*
%TD*%
D18*
%TO.C,R10*%
X149098000Y-143383000D03*
D13*
X149098000Y-133223000D03*
%TD*%
D14*
%TO.C,SN54HC595(2)*%
X142225000Y-85100000D03*
D13*
X139685000Y-85100000D03*
X137145000Y-85100000D03*
X134605000Y-85100000D03*
X132065000Y-85100000D03*
X129525000Y-85100000D03*
X126985000Y-85100000D03*
X124445000Y-85100000D03*
X124445000Y-77480000D03*
X126985000Y-77480000D03*
X129525000Y-77480000D03*
X132065000Y-77480000D03*
X134605000Y-77480000D03*
X137145000Y-77480000D03*
X139685000Y-77480000D03*
X142225000Y-77480000D03*
%TD*%
D18*
%TO.C,R14*%
X100320000Y-90160000D03*
D13*
X110480000Y-90160000D03*
%TD*%
D18*
%TO.C,R2*%
X132080000Y-97028000D03*
D13*
X121920000Y-97028000D03*
%TD*%
D14*
%TO.C,C2*%
X173482000Y-90234888D03*
D18*
X173482000Y-92734888D03*
%TD*%
%TO.C,R6*%
X186680000Y-90160000D03*
D13*
X196840000Y-90160000D03*
%TD*%
D18*
%TO.C,R5*%
X188133097Y-74720801D03*
D26*
X197946903Y-72091200D03*
%TD*%
D15*
%TO.C,B1*%
X170170000Y-139349705D03*
D27*
X168900000Y-137150000D03*
%TD*%
D28*
%TO.C,A2*%
X148580000Y-66030000D03*
D15*
X148580000Y-63490000D03*
%TD*%
D18*
%TO.C,R13*%
X106843097Y-106714801D03*
D26*
X116656903Y-104085200D03*
%TD*%
D29*
%TO.C,D2*%
X95631000Y-71247000D03*
D15*
X93177548Y-70589600D03*
%TD*%
D18*
%TO.C,C3*%
X128016000Y-92836488D03*
D14*
X128016000Y-90336488D03*
%TD*%
D18*
%TO.C,R9*%
X161280000Y-125130591D03*
D30*
X166360000Y-133929409D03*
%TD*%
D18*
%TO.C,R3*%
X162505200Y-68396903D03*
D31*
X165134801Y-58583097D03*
%TD*%
D18*
%TO.C,R17*%
X129485200Y-58583097D03*
D32*
X132114801Y-68396903D03*
%TD*%
D33*
%TO.C,PWR*%
X172720000Y-105410000D03*
X170180000Y-105410000D03*
D34*
X167640000Y-105410000D03*
%TD*%
D18*
%TO.C,R12*%
X117047898Y-120422103D03*
D20*
X124232103Y-113237898D03*
%TD*%
D15*
%TO.C,A1*%
X149098000Y-149733000D03*
D28*
X149098000Y-147193000D03*
%TD*%
D18*
%TO.C,R8*%
X174197898Y-113237898D03*
D35*
X181382103Y-120422103D03*
%TD*%
D28*
%TO.C,E1*%
X201920000Y-90160000D03*
D15*
X204460000Y-90160000D03*
%TD*%
D28*
%TO.C,E2*%
X95128000Y-90043000D03*
D15*
X92588000Y-90043000D03*
%TD*%
D18*
%TO.C,R1*%
X165100000Y-97282000D03*
D13*
X175260000Y-97282000D03*
%TD*%
D14*
%TO.C,SN54HC595(1)*%
X172705000Y-85100000D03*
D13*
X170165000Y-85100000D03*
X167625000Y-85100000D03*
X165085000Y-85100000D03*
X162545000Y-85100000D03*
X160005000Y-85100000D03*
X157465000Y-85100000D03*
X154925000Y-85100000D03*
X154925000Y-77480000D03*
X157465000Y-77480000D03*
X160005000Y-77480000D03*
X162545000Y-77480000D03*
X165085000Y-77480000D03*
X167625000Y-77480000D03*
X170165000Y-77480000D03*
X172705000Y-77480000D03*
%TD*%
D18*
%TO.C,R16*%
X110697898Y-59897898D03*
D35*
X117882103Y-67082103D03*
%TD*%
D15*
%TO.C,F1*%
X204294897Y-70030595D03*
D36*
X201841445Y-70687995D03*
%TD*%
D15*
%TO.C,C2*%
X106143949Y-55343949D03*
D37*
X107940000Y-57140000D03*
%TD*%
D15*
%TO.C,G1*%
X189746051Y-55343949D03*
D38*
X187950000Y-57140000D03*
%TD*%
D39*
%TO.C,H2*%
X129530000Y-137150000D03*
D15*
X128260000Y-139349705D03*
%TD*%
D18*
%TO.C,C1*%
X166878000Y-92710000D03*
D14*
X166878000Y-90210000D03*
%TD*%
D18*
%TO.C,R18*%
X148580000Y-69840000D03*
D13*
X148580000Y-80000000D03*
%TD*%
M02*
